<?xml version="1.0" encoding="UTF-8" standalone="no"?>
<svg
   xmlns:dc="http://purl.org/dc/elements/1.1/"
   xmlns:cc="http://creativecommons.org/ns#"
   xmlns:rdf="http://www.w3.org/1999/02/22-rdf-syntax-ns#"
   xmlns:svg="http://www.w3.org/2000/svg"
   xmlns="http://www.w3.org/2000/svg"
   xmlns:sodipodi="http://sodipodi.sourceforge.net/DTD/sodipodi-0.dtd"
   xmlns:inkscape="http://www.inkscape.org/namespaces/inkscape"
   width="500"
   height="500"
   viewBox="0 0 500 500"
   id="svg2"
   version="1.1"
   inkscape:version="0.91 r13725"
   sodipodi:docname="clipboard.svg">
  <metadata
     id="metadata10">
    <rdf:RDF>
      <cc:Work
         rdf:about="">
        <dc:format>image/svg+xml</dc:format>
        <dc:type
           rdf:resource="http://purl.org/dc/dcmitype/StillImage" />
        <dc:title></dc:title>
      </cc:Work>
    </rdf:RDF>
  </metadata>
  <defs
     id="defs8" />
  <sodipodi:namedview
     pagecolor="#ffffff"
     bordercolor="#666666"
     borderopacity="1"
     objecttolerance="10"
     gridtolerance="10"
     guidetolerance="10"
     inkscape:pageopacity="0"
     inkscape:pageshadow="2"
     inkscape:window-width="1280"
     inkscape:window-height="782"
     id="namedview6"
     showgrid="false"
     inkscape:zoom="0.13169643"
     inkscape:cx="-311.32203"
     inkscape:cy="880.81356"
     inkscape:window-x="0"
     inkscape:window-y="0"
     inkscape:window-maximized="1"
     inkscape:current-layer="layer1" />
  <g
     inkscape:groupmode="layer"
     id="layer1"
     inkscape:label="Clipboard"
     style="display:inline"
     transform="translate(0,-1292)">
    <path
       style="fill:#ffffff"
       d="m 228.57143,1670.5714 150,0 0,-107.1428 -69.64286,0 q -6.69643,0 -11.38393,-4.6875 -4.6875,-4.6875 -4.6875,-11.384 l 0,-69.6428 -64.28571,0 0,192.8571 z m 42.85714,-241.0714 0,-10.7143 q 0,-2.1763 -1.5904,-3.7667 -1.5904,-1.5904 -3.76674,-1.5904 l -117.85714,0 q -2.17634,0 -3.76675,1.5904 -1.5904,1.5904 -1.5904,3.7667 l 0,10.7143 q 0,2.1763 1.5904,3.7667 1.59041,1.5904 3.76675,1.5904 l 117.85714,0 q 2.17634,0 3.76674,-1.5904 1.5904,-1.5904 1.5904,-3.7667 z m 42.85714,112.5 50.05581,0 -50.05581,-50.0558 0,50.0558 z M 400,1563.4286 l 0,112.5 q 0,6.6964 -4.6875,11.3839 Q 390.625,1692 383.92857,1692 l -160.71428,0 q -6.69643,0 -11.38393,-4.6875 -4.6875,-4.6875 -4.6875,-11.3839 l 0,-26.7857 -91.07143,0 q -6.69643,0 -11.38393,-4.6875 Q 100,1639.7679 100,1633.0714 l 0,-225 q 0,-6.6964 4.6875,-11.3839 Q 109.375,1392 116.07143,1392 l 182.14286,0 q 6.69643,0 11.38393,4.6875 4.68749,4.6875 4.68749,11.3839 l 0,54.9107 q 3.51563,2.1764 6.02679,4.6875 l 68.30357,68.3036 q 4.6875,4.6875 8.03572,12.7232 Q 400,1556.7321 400,1563.4286 Z"
       id="path4"
       inkscape:connector-curvature="0" />
  </g>
</svg>
