<?xml version="1.0" encoding="utf-8"?>
<!-- Generator: Adobe Illustrator 15.1.0, SVG Export Plug-In . SVG Version: 6.00 Build 0)  -->
<!DOCTYPE svg PUBLIC "-//W3C//DTD SVG 1.1//EN" "http://www.w3.org/Graphics/SVG/1.1/DTD/svg11.dtd">
<svg version="1.1" id="Layer_1" xmlns="http://www.w3.org/2000/svg" xmlns:xlink="http://www.w3.org/1999/xlink" x="0px" y="0px"
	 width="439.154px" height="130.119px" viewBox="5.426 -0.609 439.154 130.119"
	 enable-background="new 5.426 -0.609 439.154 130.119" xml:space="preserve">
<g>
	<g>
		<g>
			<polygon fill="#F5634A" points="155.424,-0.609 140.426,25.372 125.424,-0.609 			"/>
		</g>
		<g>
			<polygon fill="#FF9C5B" points="110.426,25.372 125.424,-0.609 140.426,25.372 			"/>
		</g>
		<g>
			<polygon fill="#F5634A" points="140.424,25.372 125.426,51.352 110.424,25.372 			"/>
		</g>
		<g>
			<polygon fill="#FAD089" points="95.426,51.352 110.424,25.372 125.426,51.352 			"/>
		</g>
		<g>
			<polygon fill="#FF9C5B" points="125.424,51.352 110.426,77.333 95.424,51.352 			"/>
		</g>
		<g>
			<polygon fill="#FAD089" points="80.426,77.333 95.424,51.352 110.426,77.333 			"/>
		</g>
		<g>
			<polygon fill="#FF9C5B" points="110.424,77.333 95.426,103.313 80.426,77.333 			"/>
		</g>
		<g>
			<polygon fill="#F5634A" points="65.426,103.313 80.426,77.333 95.426,103.313 			"/>
		</g>
		<g>
			<polygon fill="#FF9C5B" points="95.424,103.313 80.428,129.294 65.426,103.313 			"/>
		</g>
		<g>
			<polygon fill="#F5634A" points="50.426,129.294 65.426,103.313 80.426,129.294 			"/>
		</g>
		<g>
			<polygon fill="#F5634A" points="215.426,-0.609 200.426,25.372 185.426,-0.609 			"/>
		</g>
		<g>
			<polygon fill="#FAD089" points="170.426,25.372 185.426,-0.609 200.426,25.372 			"/>
		</g>
		<g>
			<polygon fill="#FF9C5B" points="200.426,25.372 185.426,51.352 170.426,25.372 			"/>
		</g>
		<g>
			<polygon fill="#F5634A" points="155.426,51.352 170.426,25.372 185.426,51.352 			"/>
		</g>
		<g>
			<polygon fill="#FAD089" points="185.426,51.352 170.426,77.333 155.426,51.352 			"/>
		</g>
		<g>
			<polygon fill="#FF9C5B" points="140.426,77.333 155.426,51.352 170.426,77.333 			"/>
		</g>
		<g>
			<polygon fill="#F5634A" points="170.426,77.333 155.426,103.313 140.426,77.333 			"/>
		</g>
		<g>
			<polygon fill="#FAD089" points="125.426,103.313 140.426,77.333 155.426,103.313 			"/>
		</g>
		<g>
			<polygon fill="#F5634A" points="155.426,103.313 140.426,129.294 125.426,103.313 			"/>
		</g>
		<g>
			<polygon fill="#FF9C5B" points="110.426,129.294 125.426,103.313 140.426,129.294 			"/>
		</g>
		<g>
			<polygon fill="#F5634A" points="80.426,25.372 65.428,51.352 50.426,25.372 			"/>
		</g>
		<g>
			<polygon fill="#FF9C5B" points="35.426,51.352 50.426,25.372 65.426,51.352 			"/>
		</g>
		<g>
			<polygon fill="#FAD089" points="50.426,77.333 35.428,103.313 20.426,77.333 			"/>
		</g>
		<g>
			<polygon fill="#F5634A" points="5.426,103.313 20.426,77.333 35.426,103.313 			"/>
		</g>
	</g>
	<g>
		<g>
			<path fill="#414042" d="M283.293,3.692l-6.898,24.1c-0.441,1.547-1.856,2.609-3.449,2.609h-0.088
				c-1.637,0-3.007-1.105-3.361-2.609L264.411,8.51l-5.085,19.281c-0.354,1.547-1.769,2.609-3.361,2.609h-0.088
				c-1.637,0-3.007-1.062-3.405-2.566l-6.898-24.188c-0.088-0.221-0.133-0.486-0.133-0.707c0-1.371,1.15-2.742,2.786-2.742
				c1.282,0,2.433,0.84,2.786,2.166l5.262,20.828l5.572-20.871c0.31-1.105,1.371-1.945,2.653-1.945c1.149,0,2.166,0.84,2.476,1.945
				l5.572,20.871l5.218-20.828c0.31-1.281,1.504-2.121,2.83-2.121c1.636,0,2.786,1.238,2.786,2.697
				C283.382,3.206,283.337,3.469,283.293,3.692z"/>
			<path fill="#414042" d="M309.167,30.135h-15.079c-1.769,0-3.184-1.459-3.184-3.184V3.825c0-1.725,1.415-3.186,3.184-3.186h15.079
				c1.238,0,2.255,1.018,2.255,2.344c0,1.283-1.017,2.301-2.255,2.301h-13.001v7.518h12.691c1.238,0,2.255,1.016,2.255,2.344
				c0,1.281-1.017,2.299-2.255,2.299h-12.691v8.047h13.001c1.238,0,2.255,1.018,2.255,2.256
				C311.422,29.118,310.406,30.135,309.167,30.135z"/>
			<path fill="#414042" d="M334.773,30.135h-11.807c-1.769,0-3.184-1.459-3.184-3.184V3.825c0-1.725,1.415-3.186,3.184-3.186h11.409
				c5.438,0,8.401,3.406,8.401,7.518c0,3.715-2.388,6.191-5.129,6.766c3.14,0.486,5.704,3.627,5.704,7.252
				C343.352,26.729,340.3,30.135,334.773,30.135z M333.27,5.239h-8.226v7.562h8.226c2.608,0,4.112-1.592,4.112-3.76
				C337.382,6.876,335.878,5.239,333.27,5.239z M333.49,17.399h-8.446v8.137h8.446c2.786,0,4.467-1.547,4.467-4.068
				C337.957,19.302,336.409,17.399,333.49,17.399z"/>
		</g>
		<g>
			<path fill="#414042" d="M257.69,80.089c-4.333,0-8.932-1.416-10.922-3.76c-0.354-0.441-0.53-0.928-0.53-1.459
				c0-1.371,1.193-2.52,2.521-2.52c0.486,0,1.017,0.133,1.415,0.441c2.033,1.549,4.643,2.654,7.738,2.654
				c4.156,0,5.837-2.078,5.837-3.98c0-6.102-17.157-2.299-17.157-13.178c0-4.908,4.245-8.666,10.745-8.666
				c3.538,0,7.96,1.105,9.905,3.227c0.354,0.398,0.531,0.93,0.531,1.416c0,1.371-1.283,2.432-2.565,2.432
				c-0.486,0-0.973-0.133-1.415-0.441c-2.078-1.371-4.51-1.99-6.898-1.99c-3.007,0-4.908,1.459-4.908,3.625
				c0,5.439,17.113,2.035,17.113,13.045C269.099,75.887,265.65,80.089,257.69,80.089z"/>
			<path fill="#414042" d="M289.973,80.089c-8.578,0-12.779-4.908-12.779-12.16V52.407c0-1.416,1.149-2.609,2.697-2.609
				c1.459,0,2.609,1.193,2.609,2.609v15.344c0,4.6,2.608,7.65,7.473,7.65c4.908,0,7.474-3.051,7.474-7.65V52.407
				c0-1.416,1.193-2.609,2.741-2.609c1.46,0,2.609,1.193,2.609,2.609v15.477C302.797,75.223,298.596,80.089,289.973,80.089z"/>
			<path fill="#414042" d="M340.432,79.823c-1.46,0-2.609-1.193-2.609-2.609V57.493l-8.711,21.402
				c-0.222,0.529-0.752,0.928-1.46,0.928c-0.574,0-1.149-0.398-1.37-0.928l-8.668-21.402v19.721c0,1.416-1.193,2.609-2.697,2.609
				c-1.415,0-2.564-1.193-2.564-2.609V53.292c0-1.814,1.504-3.316,3.316-3.316c2.255-0.178,4.245,0.486,5.085,2.477l6.943,17.111
				l6.986-17.111c0.619-1.504,2.078-2.477,3.759-2.477c2.388-0.266,4.688,0.928,4.688,3.316v23.922
				C343.129,78.63,341.935,79.823,340.432,79.823z"/>
			<path fill="#414042" d="M380.765,79.823c-1.46,0-2.609-1.193-2.609-2.609V57.493l-8.711,21.402
				c-0.222,0.529-0.752,0.928-1.46,0.928c-0.574,0-1.149-0.398-1.37-0.928l-8.668-21.402v19.721c0,1.416-1.193,2.609-2.697,2.609
				c-1.415,0-2.564-1.193-2.564-2.609V53.292c0-1.814,1.504-3.316,3.316-3.316c2.255-0.178,4.245,0.486,5.085,2.477l6.943,17.111
				l6.986-17.111c0.619-1.504,2.078-2.477,3.759-2.477c2.388-0.266,4.688,0.928,4.688,3.316v23.922
				C383.462,78.63,382.268,79.823,380.765,79.823z"/>
			<path fill="#414042" d="M411.281,79.557h-15.079c-1.769,0-3.184-1.459-3.184-3.184V53.247c0-1.725,1.415-3.184,3.184-3.184
				h15.079c1.238,0,2.255,1.018,2.255,2.344c0,1.281-1.017,2.299-2.255,2.299H398.28v7.518h12.691c1.238,0,2.255,1.018,2.255,2.344
				c0,1.283-1.017,2.299-2.255,2.299H398.28v8.049h13.001c1.238,0,2.255,1.018,2.255,2.256
				C413.535,78.542,412.519,79.557,411.281,79.557z"/>
			<path fill="#414042" d="M437.682,68.016l4.909,7.959c0.221,0.398,0.354,0.842,0.354,1.283c0,1.238-1.062,2.564-2.609,2.564
				c-0.884,0-1.725-0.441-2.211-1.281l-5.881-9.951h-5.086v8.623c0,1.416-1.193,2.609-2.697,2.609c-1.415,0-2.564-1.193-2.564-2.609
				V53.247c0-1.725,1.415-3.184,3.184-3.184h9.861c5.837,0,9.64,3.803,9.64,9.285C444.58,64.567,441.176,67.442,437.682,68.016z
				 M427.157,54.706v9.242h7.031c2.874,0,4.997-1.812,4.997-4.6c0-2.83-2.123-4.643-4.997-4.643H427.157z"/>
		</g>
		<g>
			<path fill="#414042" d="M272.106,103.598c0.354,0.441,0.575,1.016,0.575,1.547c0,1.371-1.15,2.432-2.521,2.432
				c-0.664,0-1.371-0.266-1.901-0.84c-1.681-1.902-4.113-3.051-6.545-3.051c-5.793,0-10.082,4.422-10.082,10.568
				c0,6.102,4.289,10.568,10.082,10.568c2.432,0,4.864-1.061,6.545-3.008c0.53-0.529,1.237-0.84,1.945-0.84
				c1.371,0,2.432,1.105,2.432,2.389c0,0.531-0.177,1.105-0.53,1.547c-2.255,2.564-5.571,4.6-10.392,4.6
				c-8.711,0-15.477-6.191-15.477-15.256s6.766-15.256,15.477-15.256C266.534,98.999,269.851,101.032,272.106,103.598z"/>
			<path fill="#414042" d="M303.462,129.245c-1.105,0-2.123-0.664-2.565-1.725l-1.547-4.111h-13.443l-1.592,4.111
				c-0.398,1.061-1.459,1.725-2.564,1.725c-1.681,0-2.83-1.371-2.83-2.83c0-0.309,0.044-0.664,0.221-0.973l9.198-23.438
				c0.663-1.68,2.299-2.785,4.112-2.785c1.901-0.088,3.714,1.018,4.422,2.785l9.242,23.438c0.088,0.309,0.177,0.664,0.177,0.973
				C306.292,127.786,305.187,129.245,303.462,129.245z M292.628,104.792l-5.263,13.93h10.48L292.628,104.792z"/>
			<path fill="#414042" d="M342.07,129.245c-1.46,0-2.609-1.193-2.609-2.609v-19.721l-8.711,21.402
				c-0.222,0.529-0.752,0.928-1.46,0.928c-0.574,0-1.149-0.398-1.37-0.928l-8.668-21.402v19.721c0,1.416-1.193,2.609-2.697,2.609
				c-1.415,0-2.564-1.193-2.564-2.609v-23.922c0-1.814,1.504-3.316,3.316-3.316c2.255-0.178,4.245,0.486,5.085,2.477l6.943,17.111
				l6.986-17.111c0.619-1.504,2.078-2.477,3.759-2.477c2.388-0.266,4.688,0.928,4.688,3.316v23.922
				C344.767,128.052,343.573,129.245,342.07,129.245z"/>
			<path fill="#414042" d="M367.367,118.012h-7.783v8.623c0,1.416-1.193,2.609-2.697,2.609c-1.415,0-2.564-1.193-2.564-2.609
				v-23.967c0-1.725,1.415-3.184,3.184-3.184h9.861c6.19,0,9.64,4.244,9.64,9.285C377.007,113.768,373.514,118.012,367.367,118.012z
				 M366.659,104.128h-7.075v9.242h7.075c2.875,0,4.953-1.857,4.953-4.6C371.613,105.94,369.534,104.128,366.659,104.128z"/>
		</g>
	</g>
</g>
</svg>
