<?xml version="1.0" encoding="utf-8"?>
<!-- Generator: Adobe Illustrator 15.1.0, SVG Export Plug-In . SVG Version: 6.00 Build 0)  -->
<!DOCTYPE svg PUBLIC "-//W3C//DTD SVG 1.1//EN" "http://www.w3.org/Graphics/SVG/1.1/DTD/svg11.dtd">
<svg version="1.1" id="Layer_1" xmlns="http://www.w3.org/2000/svg" xmlns:xlink="http://www.w3.org/1999/xlink" x="0px" y="0px"
	 width="210px" height="129.903px" viewBox="0 -240.609 210 129.903" enable-background="new 0 -240.609 210 129.903"
	 xml:space="preserve">
<g>
	<g>
		<polygon fill="#F5634A" points="149.998,-240.609 135,-214.628 119.998,-240.609 		"/>
	</g>
	<g>
		<polygon fill="#FF9C5B" points="105,-214.628 119.998,-240.609 135,-214.628 		"/>
	</g>
	<g>
		<polygon fill="#F5634A" points="134.998,-214.628 120,-188.648 104.998,-214.628 		"/>
	</g>
	<g>
		<polygon fill="#FAD089" points="90,-188.648 104.998,-214.628 120,-188.648 		"/>
	</g>
	<g>
		<polygon fill="#FF9C5B" points="119.998,-188.648 105,-162.667 89.998,-188.648 		"/>
	</g>
	<g>
		<polygon fill="#FAD089" points="75,-162.667 89.998,-188.648 105,-162.667 		"/>
	</g>
	<g>
		<polygon fill="#FF9C5B" points="104.998,-162.667 90,-136.687 75,-162.667 		"/>
	</g>
	<g>
		<polygon fill="#F5634A" points="60,-136.687 75,-162.667 90,-136.687 		"/>
	</g>
	<g>
		<polygon fill="#FF9C5B" points="89.998,-136.687 75.002,-110.706 60,-136.687 		"/>
	</g>
	<g>
		<polygon fill="#F5634A" points="45,-110.706 60,-136.687 75,-110.706 		"/>
	</g>
	<g>
		<polygon fill="#F5634A" points="210,-240.609 195,-214.628 180,-240.609 		"/>
	</g>
	<g>
		<polygon fill="#FAD089" points="165,-214.628 180,-240.609 195,-214.628 		"/>
	</g>
	<g>
		<polygon fill="#FF9C5B" points="195,-214.628 180,-188.648 165,-214.628 		"/>
	</g>
	<g>
		<polygon fill="#F5634A" points="150,-188.648 165,-214.628 180,-188.648 		"/>
	</g>
	<g>
		<polygon fill="#FAD089" points="180,-188.648 165,-162.667 150,-188.648 		"/>
	</g>
	<g>
		<polygon fill="#FF9C5B" points="135,-162.667 150,-188.648 165,-162.667 		"/>
	</g>
	<g>
		<polygon fill="#F5634A" points="165,-162.667 150,-136.687 135,-162.667 		"/>
	</g>
	<g>
		<polygon fill="#FAD089" points="120,-136.687 135,-162.667 150,-136.687 		"/>
	</g>
	<g>
		<polygon fill="#F5634A" points="150,-136.687 135,-110.706 120,-136.687 		"/>
	</g>
	<g>
		<polygon fill="#FF9C5B" points="105,-110.706 120,-136.687 135,-110.706 		"/>
	</g>
	<g>
		<polygon fill="#F5634A" points="75,-214.628 60.002,-188.648 45,-214.628 		"/>
	</g>
	<g>
		<polygon fill="#FF9C5B" points="30,-188.648 45,-214.628 60,-188.648 		"/>
	</g>
	<g>
		<polygon fill="#FAD089" points="45,-162.667 30.002,-136.687 15,-162.667 		"/>
	</g>
	<g>
		<polygon fill="#F5634A" points="0,-136.687 15,-162.667 30,-136.687 		"/>
	</g>
</g>
</svg>
