<?xml version="1.0" encoding="UTF-8" standalone="no"?>
<!-- Generator: Adobe Illustrator 15.1.0, SVG Export Plug-In . SVG Version: 6.00 Build 0)  -->

<svg
   xmlns:dc="http://purl.org/dc/elements/1.1/"
   xmlns:cc="http://creativecommons.org/ns#"
   xmlns:rdf="http://www.w3.org/1999/02/22-rdf-syntax-ns#"
   xmlns:svg="http://www.w3.org/2000/svg"
   xmlns="http://www.w3.org/2000/svg"
   xmlns:sodipodi="http://sodipodi.sourceforge.net/DTD/sodipodi-0.dtd"
   xmlns:inkscape="http://www.inkscape.org/namespaces/inkscape"
   version="1.1"
   id="Layer_1"
   x="0px"
   y="0px"
   width="200"
   height="200"
   viewBox="0 0 199.99999 199.99999"
   enable-background="new 0 0 305.768 116.121"
   xml:space="preserve"
   inkscape:version="0.91 r13725"
   sodipodi:docname="slave-event.svg"><metadata
     id="metadata51"><rdf:RDF><cc:Work
         rdf:about=""><dc:format>image/svg+xml</dc:format><dc:type
           rdf:resource="http://purl.org/dc/dcmitype/StillImage" /><dc:title /></cc:Work></rdf:RDF></metadata><defs
     id="defs49" /><sodipodi:namedview
     pagecolor="#ffffff"
     bordercolor="#666666"
     borderopacity="1"
     objecttolerance="10"
     gridtolerance="10"
     guidetolerance="10"
     inkscape:pageopacity="0"
     inkscape:pageshadow="2"
     inkscape:window-width="1280"
     inkscape:window-height="782"
     id="namedview47"
     showgrid="false"
     units="px"
     inkscape:zoom="2"
     inkscape:cx="29.77775"
     inkscape:cy="157.25"
     inkscape:window-x="0"
     inkscape:window-y="0"
     inkscape:window-maximized="1"
     inkscape:current-layer="layer1"
     inkscape:snap-page="true"><inkscape:grid
       type="xygrid"
       id="grid4216" /></sodipodi:namedview><g
     inkscape:groupmode="layer"
     id="layer1"
     inkscape:label="bg"
     style="display:inline;opacity:1"
     transform="translate(0,83.879)"><rect
       style="opacity:1;fill:#404041;fill-opacity:1;fill-rule:nonzero;stroke:none;stroke-width:1;stroke-linecap:butt;stroke-linejoin:miter;stroke-miterlimit:4;stroke-dasharray:none;stroke-dashoffset:0;stroke-opacity:1"
       id="rect4214"
       width="199.99998"
       height="199.99998"
       x="0"
       y="-83.878998" /></g><g
     inkscape:groupmode="layer"
     id="layer2"
     inkscape:label="logo"
     style="display:inline"
     transform="translate(0,83.879)"><path
       style="fill:#ffffff;fill-opacity:1"
       inkscape:connector-curvature="0"
       id="path29"
       d="m 137.32449,24.414992 c 0,-3.054 -2.477,-5.53 -5.529,-5.53 l -23.502,0 c -3.053,0 -5.529,2.477 -5.529,5.53 l 0,44.237 c 0,3.053 2.477,5.529 5.529,5.529 l 23.502,0 c 3.053,0 5.529,-2.477 5.529,-5.529 l 0,-44.237 z" /><path
       style="fill:#ffffff;fill-opacity:1"
       inkscape:connector-curvature="0"
       id="path31"
       d="m 177.41449,24.414992 c 0,-3.054 -2.477,-5.53 -5.531,-5.53 l -23.5,0 c -3.053,0 -5.531,2.477 -5.531,5.53 l 0,16.588 c 0,3.055 2.479,5.53 5.531,5.53 l 23.5,0 c 3.055,0 5.531,-2.476 5.531,-5.53 l 0,-16.588 z" /><path
       style="fill:#ffffff;fill-opacity:1"
       inkscape:connector-curvature="0"
       id="path33"
       d="m 97.233492,24.414992 c 0,-3.054 -2.476,-5.53 -5.529,-5.53 l -23.501,0 c -3.054,0 -5.53,2.477 -5.53,5.53 l 0,16.588 c 0,3.055 2.477,5.53 5.53,5.53 l 23.501,0 c 3.054,0 5.529,-2.476 5.529,-5.53 l 0,-16.588 z" /><path
       style="fill:#ffffff;fill-opacity:1"
       inkscape:connector-curvature="0"
       id="path37"
       d="m 62.673492,7.826992 c 0,3.054 2.477,5.529 5.53,5.529 l 23.501,0 c 3.054,0 5.529,-2.476 5.529,-5.529 l 0,-44.238 c 0,-3.053 -2.475,-5.528 -5.529,-5.528 l -23.501,0 c -3.054,0 -5.53,2.475 -5.53,5.528 l 0,44.238 z" /><path
       style="fill:#ffffff;fill-opacity:1"
       inkscape:connector-curvature="0"
       id="path39"
       d="m 22.585492,7.826992 c 0,3.054 2.475,5.529 5.528,5.529 l 23.501,0 c 3.055,0 5.529,-2.476 5.529,-5.529 l 0,-16.59 c 0,-3.053 -2.475,-5.528 -5.529,-5.528 l -23.501,0 c -3.053,-10e-4 -5.528,2.475 -5.528,5.528 l 0,16.59 z" /></g></svg>