<?xml version="1.0" encoding="utf-8"?>
<!-- Generator: Adobe Illustrator 15.1.0, SVG Export Plug-In . SVG Version: 6.00 Build 0)  -->
<!DOCTYPE svg PUBLIC "-//W3C//DTD SVG 1.1//EN" "http://www.w3.org/Graphics/SVG/1.1/DTD/svg11.dtd">
<svg version="1.1" id="Layer_1" xmlns="http://www.w3.org/2000/svg" xmlns:xlink="http://www.w3.org/1999/xlink" x="0px" y="0px"
	 width="66px" height="66px" viewBox="0 0 66 66" enable-background="new 0 0 66 66" xml:space="preserve">
<path fill="#6D6E70" d="M49.023,31.055c-0.29-0.041-0.591,0.031-0.881,0.163l0.813-5.579c0,0,2.853-2.758,2.853-4.471
	c0-1.712-7.602-9.167-18.814-9.167c-11.211,0-18.803,7.455-18.803,9.167c0,1.713,2.852,4.471,2.852,4.471l0.814,5.577
	c-0.288-0.129-0.587-0.201-0.881-0.16c-0.321,0.035-0.907,0.219-1.221,1.034c-0.146,0.364-0.524,4.079,0.374,6.312
	c0.417,1.046,0.948,1.689,1.579,1.909c0.009,0.005,0.016,0.003,0.022,0.005v1.161c-0.013,3.659,0.39,8.948,4.047,12.618
	C24.359,56.685,28.149,58,33.046,58c4.876,0,8.648-1.307,11.213-3.88c3.628-3.644,4.025-8.961,4.011-12.643l-0.001-1.163
	c0.008-0.002,0.015,0,0.023-0.005c0.631-0.22,1.16-0.863,1.576-1.909c0.901-2.232,0.521-5.947,0.379-6.308
	C49.932,31.273,49.345,31.09,49.023,31.055z M17.732,38.93c-0.166-0.194-0.351-0.471-0.545-0.955
	c-0.757-1.888-0.459-5.101-0.369-5.47c0.113-0.297,0.244-0.311,0.287-0.317c0.188-0.012,0.415,0.128,0.634,0.334L17.732,38.93z
	 M30.042,21.971c0.312,0,0.57,0.255,0.57,0.57c0,0.824,0.78,1.486,1.815,1.679v-4.458h-0.441c-0.313,0-0.572-0.255-0.572-0.571
	c0-0.315,0.259-0.57,0.572-0.57h0.441v-0.675c0-0.315,0.259-0.57,0.57-0.57c0.317,0,0.572,0.255,0.572,0.57v0.675h0.441
	c0.317,0,0.57,0.255,0.57,0.57c0,0.316-0.253,0.571-0.57,0.571H33.57v4.458c1.034-0.193,1.819-0.855,1.819-1.679
	c0-0.315,0.254-0.57,0.571-0.57c0.312,0,0.57,0.255,0.57,0.57c0,1.443-1.284,2.632-2.96,2.859v0.412
	c0,0.316-0.254,0.571-0.572,0.571c-0.312,0-0.57-0.255-0.57-0.571V25.4c-1.672-0.227-2.957-1.416-2.957-2.859
	C29.471,22.226,29.725,21.971,30.042,21.971z M38.435,49.866c-1.575,1.26-3.049,1.833-4.838,1.833c-0.453,0-0.924-0.036-1.423-0.106
	c-0.312-0.045-0.528-0.335-0.483-0.647c0.044-0.313,0.332-0.531,0.645-0.487c2.178,0.31,3.643-0.089,5.386-1.483
	c0.245-0.195,0.604-0.155,0.803,0.089C38.72,49.309,38.68,49.67,38.435,49.866z M42.229,47.559
	c-2.438,0.028-5.411-3.085-8.979-0.007c-2.665-1.734-4.365,1.991-6.874,2.722c-2.508,0.732-5.822-1.531-6.363-9.021l0.009-8.338
	c3.737,2.297,9.3,3.285,12.976,3.285c3.68,0,9.242-0.987,12.979-3.285l0.009,8.337C45.314,46.254,43.779,47.538,42.229,47.559z
	 M32.998,33.915c-4.38,0-10.298-1.342-13.202-3.842c0,0,3.842-1.186,13.202-1.186c9.352,0,13.205,1.186,13.205,1.186
	C43.3,32.573,37.382,33.915,32.998,33.915z M48.809,37.977c-0.193,0.486-0.378,0.764-0.54,0.953l-0.008-6.397
	c0.232-0.211,0.478-0.356,0.634-0.344c0.041,0.006,0.173,0.02,0.276,0.279C49.271,32.874,49.57,36.087,48.809,37.977z M38.52,36.67
	c-1.155,0-2.097,0.938-2.097,2.092c0,1.158,0.941,2.095,2.097,2.095s2.091-0.937,2.091-2.095C40.61,37.607,39.675,36.67,38.52,36.67
	z M27.483,36.67c-1.156,0-2.096,0.938-2.096,2.092c0,1.158,0.94,2.095,2.096,2.095c1.154,0,2.091-0.937,2.091-2.095
	C29.574,37.607,28.637,36.67,27.483,36.67z"/>
</svg>
