<?xml version="1.0" encoding="utf-8"?>
<!-- Generator: Adobe Illustrator 15.1.0, SVG Export Plug-In . SVG Version: 6.00 Build 0)  -->
<!DOCTYPE svg PUBLIC "-//W3C//DTD SVG 1.1//EN" "http://www.w3.org/Graphics/SVG/1.1/DTD/svg11.dtd">
<svg version="1.1" id="Layer_1" xmlns="http://www.w3.org/2000/svg" xmlns:xlink="http://www.w3.org/1999/xlink" x="0px" y="0px"
	 width="487px" height="145px" viewBox="0 0 487 145" enable-background="new 0 0 487 145" xml:space="preserve">
<g>
	<path fill="#6CBC45" d="M48,109V49.065c0-5.999-2.656-11.832-12.602-11.832C30.505,37.233,28,38.02,25,38.965V109H10.719
		c-2.666,0-5.488-1.251-7.523-3.282C1.174,103.685,0,100.785,0,98.119v-69.88c9-3.783,20.881-6.31,36.028-6.31
		C63.01,21.929,73,33.446,73,48.904v50.2c0,2.418-1.14,5.058-2.986,6.903c-1.846,1.842-4.481,2.993-6.89,2.993H48z"/>
	<path fill="#1478BB" d="M462,109V49.065c0-5.999-2.66-11.832-12.605-11.832c-4.893,0-7.395,0.787-10.395,1.732V109h-14.074
		c-2.666,0-5.088-1.251-7.109-3.282c-2.043-2.033-2.816-4.933-2.816-7.599v-69.88c8-3.783,20.377-6.31,35.523-6.31
		C477.5,21.929,487,33.446,487,48.904v50.2c0,2.418-1.037,5.058-2.883,6.903c-1.846,1.842-4.377,2.993-6.779,2.993H462z"/>
	<path fill="#6CBC45" d="M193.898,108.42C189.013,103.145,185,96.402,185,82.339V39h-10v-5.598c0-2.531,1.078-4.818,3.003-6.752
		c1.927-1.93,4.571-2.65,7.105-2.65H185v-0.266c0-5.08,1.376-10.192,4.73-14.513c3.348-4.321,7.782-7.156,12.704-8.419l2.181-0.575
		c1.055-0.271,2.134-0.069,3.057,0.656C208.609,1.608,209,2.688,209,3.779V24h13v2.675c0,3.267-1.135,6.316-3.625,8.807
		c-2.498,2.494-5.654,3.519-8.921,3.519H209v44.299c0,4.135,0.345,11.174,3.274,16.918
		C219.657,114.709,206.027,121.514,193.898,108.42z"/>
	<path fill="#6CBC45" d="M133.847,93.234c-30.483,0-28.403-56.792-6.468-56.792c8.987,0,14.041,6.625,14.041,21.775l-18.56,2.761
		c-8.438,0.809-6.899,13.077,0,12.283l38.833-5.526c1.436-0.205,2.651-1.545,2.666-2.999c0.256-27.104-12.188-42.807-36.035-42.807
		c-24.448,0-38.335,17.197-38.335,43.857c0,27.13,14.985,44.335,41.016,44.335c14.355,0,20.918-2.455,25.884-5.832
		c8.701-5.914,6.73-21.148-4.051-15.135C148.268,91.523,143.785,93.234,133.847,93.234z"/>
	<path fill="#1478BB" d="M366.625,93.234c-30.483,0-28.403-56.792-6.475-56.792c8.994,0,14.048,6.625,14.048,21.775l-18.56,2.761
		c-8.423,0.809-6.899,13.077,0,12.283l38.833-5.526c1.436-0.205,2.651-1.545,2.666-2.999c0.257-27.104-12.188-42.807-36.035-42.807
		c-24.448,0-38.335,17.197-38.335,43.857c0,27.13,14.985,44.335,41.016,44.335c14.363,0,20.918-2.455,25.877-5.832
		c8.715-5.914,6.738-21.148-4.036-15.135C381.039,91.523,376.564,93.234,366.625,93.234z"/>
	<path fill="#1478BB" d="M276.944,21.929c-29.188,0-43.658,17.827-43.658,46.223c0,25.397,14.683,41.024,35.044,41.024
		c0.57,0,1.122-0.025,1.671-0.041c7.669,0.252,10.794-11.088,0.005-14.627c-8.708-2.32-12.396-11.367-12.396-27.773
		c0-20.354,5.129-30.608,17.741-30.608c3.311,0,5.649,0.472,7.649,1.421v73.671c0,9.785-4.652,15.93-17.588,15.93
		c-8.041,0-8.711,17.201,4.385,17.201c21.768,0,37.203-11.041,37.203-35.174V28.239C301,24.613,290.032,21.929,276.944,21.929z"/>
	<path fill="#1478BB" d="M248.661,125.947c3.867,3.453,4.211,9.4,0.762,13.275c-3.465,3.875-9.412,4.209-13.286,0.752
		c-3.867-3.455-4.204-9.402-0.747-13.271C238.847,122.824,244.779,122.49,248.661,125.947z"/>
	<path fill="#6CBC45" d="M226.285,118.488c2.835,2.533,3.084,6.877,0.55,9.709c-2.527,2.83-6.87,3.078-9.705,0.557
		c-2.834-2.535-3.083-6.879-0.549-9.717C219.101,116.207,223.451,115.957,226.285,118.488z"/>
</g>
</svg>
